<svg fill="none" height="27" viewBox="0 0 27 27" width="27" xmlns="http://www.w3.org/2000/svg" xmlns:xlink="http://www.w3.org/1999/xlink"><clipPath id="a"><path d="m0 0h27v27h-27z"/></clipPath><g clip-path="url(#a)"><path d="m26.2715 11.7437c-.0006-.0006-.0012-.0012-.0018-.0019l-11.0139-11.013406c-.4694-.469666-1.0936-.728394-1.7575-.728394s-1.2881.258522-1.7578.728188l-11.008066 11.007912c-.003707.0037-.007415.0076-.011123.0113-.964051.9696-.962403 2.5428.004738 3.5099.441861.4421 1.025441.6981 1.649391.7249.02534.0025.05088.0037.07663.0037h.43897v8.1053c0 1.6038 1.30497 2.9088 2.90925 2.9088h4.30901c.4367 0 .791-.3541.791-.791v-6.3545c0-.7319.5953-1.3272 1.3272-1.3272h2.5415c.7319 0 1.3273.5953 1.3273 1.3272v6.3545c0 .4369.3541.791.791.791h4.309c1.6042 0 2.9092-1.305 2.9092-2.9088v-8.1053h.4071c.6637 0 1.2878-.2585 1.7577-.7282.9682-.9687.9686-2.5446.0012-3.514z" fill="#fff"/></g></svg>