<svg fill="none" height="37" viewBox="0 0 28 37" width="28" xmlns="http://www.w3.org/2000/svg"><g fill="#fff"><path d="m10.117 18.1075c4.2835.4962 9.4327-1.0942 11.0449-7.0415.8867-3.27524.5854-5.87326-.8953-7.72201-2.8742-3.58582-9.2973-3.34134705-9.366-3.33804336-.0165 0-.1447-.00594664-.3608-.00594664-1.27385 0-5.61622.198221-8.29684 2.82465-1.574533 1.54679-2.3284347 3.70344-2.23527066 6.40982.03085136.88043.22067466 1.74813.56030566 2.56103.019628.0371.035562.0761.047573.1163 1.521022 3.5026 5.637412 5.7491 9.501432 6.1957zm-8.06961-10.15156c-.35634-.07864-.58146-.43126-.50282-.7876.89596-4.049 4.2895-5.34272 6.97937-5.71604.36163-.05017.69546.20231.74564.56394s-.20231.69547-.56394.74564c-2.27426.31452-5.13922 1.38425-5.87065 4.69124-.06687.30227-.33465.51759-.64422.51802-.04822.0005-.09634-.0046-.14338-.0152z"/><path d="m8.59729 31.7141h9.25031v2.643h-9.25031z"/><path d="m25.9562 8.36751c-.8154-.49753-2.0391-.12818-3.0255.33764-.0851.91589-.2512 1.82245-.4963 2.70905-1.6267 6.0028-6.3992 8.1013-10.8308 8.1013-4.14524-.0054-8.09049-1.7826-10.841362-4.8835.246452 3.9281.967322 9.2562 2.955482 13.1176h2.2366c.36491 0 .66073.2958.66073.6607s-.29582.6608-.66073.6608h-1.98222v7.2681c0 .3649.29582.6607.66074.6607h12.55406c.3649 0 .6607-.2958.6607-.6607v-.6608h-9.25033c-.72983 0-1.32148-.5916-1.32148-1.3214v-2.643c0-.7298.59165-1.3215 1.32148-1.3215h9.25033v-1.3214h-8.5896c-.36491 0-.66073-.2959-.66073-.6608s.29582-.6607.66073-.6607h9.0138c1.2276-1.0281 8.8261-7.7154 8.8261-15.8577 0-1.8501-.3964-3.0698-1.1417-3.52439zm-11.0343 16.85869c.2013.1321.3149.3632.2965.6033-.0185.2401-.1662.4512-.3854.5508-.2192.0997-.4753.0722-.6684-.0718l-2.9244-2.0469-2.92507 2.0482c-.29868.1959-.69892.1189-.90366-.1738-.20474-.2926-.13988-.695.14646-.9084l2.52997-1.7728-2.52997-1.7714c-.28634-.2135-.3512-.6159-.14646-.9085.20474-.2927.60498-.3697.90366-.1738l2.92507 2.0469 2.9251-2.0483c.1931-.1439.4492-.1714.6684-.0717.2192.0996.3668.3107.3853.5508s-.0951.4712-.2965.6032l-2.53 1.7728z"/></g></svg>