<svg fill="none" height="27" viewBox="0 0 24 27" width="24" xmlns="http://www.w3.org/2000/svg"><path d="m23.5397 21.7498c-.08-.1648-.2088-.3012-.3692-.3906-.1603-.0894-.3444-.1276-.5272-.1094h-.762c-2.2305-.0605-4.3745-.8728-6.0816-2.3042-1.7071-1.4313-2.8762-3.397-3.3165-5.5759-.4402-2.1789-.1254-4.44203.8929-6.41963 1.0183-1.97761 2.68-3.55273 4.7134-4.46794.1738-.07266.3202-.19804.4184-.35833s.1431-.34733.1284-.53452c-.0061-.17996-.0668-.35385-.174-.49884-.1072-.145004-.2559-.254337-.4266-.313652-1.4375-.515788-2.9541-.77863059-4.482-.77677828-3.59467 0-7.0421 1.42230028-9.58391 3.95402028s-3.96979 5.96547-3.96979 9.54587 1.42798 7.0141 3.96979 9.5458c2.54181 2.5318 5.98924 3.9541 9.58391 3.9541 1.8538.0111 3.6892-.3654 5.3878-1.1052 1.6985-.7398 3.2222-1.8263 4.4727-3.1894.1104-.1307.181-.2901.2032-.4594.0223-.1693-.0047-.3415-.0777-.496zm-9.9591 3.5089c-3.1192 0-6.11062-1.2342-8.31621-3.431s-3.44468-5.1764-3.44468-8.2832 1.23909-6.08631 3.44468-8.28315c2.20559-2.19683 5.19701-3.431 8.31621-3.431.6006-.00312 1.2004.04467 1.7928.14286-1.9202 1.33998-3.3899 3.2257-4.2171 5.41078-.8273 2.18507-.9735 4.56791-.4197 6.83701.5538 2.2692 1.782 4.3192 3.524 5.8822s3.9168 2.5663 6.2403 2.8787c-1.9955 1.4908-4.4259 2.2904-6.9203 2.2768z" fill="#fff"/></svg>